:SAMPLES-PER-SECOND 30
:FULLY-SPECIFIED
:DEGREES
1114
root  22.7971 32.8052 -6.57857 100.236 69.7119 -146.021
RightUpLeg  82.8892 -18.7604 40.2234
RightLeg  0.861825 -50.5584 -3.81039
RightFoot  -4.41803 -1.16372 18.2665
RightToes  3.49245e-010 0 -3.6325e-017
Spine  98.5708 -13.3264 7.48402
Spine1  16.5181 -4.50303 1.60727
HEad  -21.1383 2.24139 1.71903
LeftShoulder1  -0.171623 3.95814 -31.6353
LeftArm  24.2285 -8.06252 -41.169
LeftForeArm  21.9661 -42.6718 -8.84697
LeftHand  -0.000813616 4.67145 -4.77233
RightShoulder  -0.519284 -5.0414 26.9637
RightArm  9.72657 -15.9761 36.5311
RightForeArm  14.9848 44.6695 10.0436
RightHand  0.0432819 5.46035 0.152725
LeftUpLeg  41.6671 -30.3834 141.72
LeftLeg  134.826 -53.8082 -142.941
LeftFoot  -3.5097 -1.69202 24.6089
LeftToes  -5.36635e-011 -6.70219e-011 5.24975e-011
1115
root  23.6832 32.5554 -7.12865 98.5166 69.3665 -147.755
RightUpLeg  79.1496 -19.9929 48.4971
RightLeg  8.10509 -61.6187 -10.9222
RightFoot  -1.41945 -1.42175 16.8014
RightToes  3.49245e-010 0 -3.6325e-017
Spine  98.7076 -13.1783 7.29456
Spine1  16.4523 -5.30434 2.79922
HEad  -22.8035 1.57528 0.872969
LeftShoulder1  -0.281728 4.24242 -32.0283
LeftArm  19.6605 -5.80316 -39.1094
LeftForeArm  22.1669 -45.7944 -9.94414
LeftHand  0.0063352 4.38457 -3.85928
RightShoulder  -0.535072 -5.10903 26.5446
RightArm  2.01717 -18.4282 35.34
RightForeArm  12.1991 50.568 12.7567
RightHand  -0.0408467 6.34914 -0.742293
LeftUpLeg  37.2207 -25.625 150.363
LeftLeg  143.215 -46.4248 -151.553
LeftFoot  -3.00943 -1.64131 22.492
LeftToes  -5.36635e-011 -6.70219e-011 5.24975e-011
1116
root  24.5412 32.5347 -7.60547 102.812 67.5084 -147.003
RightUpLeg  69.2934 -21.3542 60.6479
RightLeg  16.8713 -69.5669 -21.5261
RightFoot  6.47124 -1.1582 7.78035
RightToes  3.49245e-010 0 -3.6325e-017
Spine  95.444 -14.0533 7.70637
Spine1  15.8688 -6.22422 3.52046
HEad  -24.4186 1.14012 0.38266
LeftShoulder1  -0.338091 4.38897 -32.0691
LeftArm  12.4915 -3.31547 -38.4127
LeftForeArm  17.9032 -47.359 -10.8705
LeftHand  -0.0198554 4.50261 -1.13648
RightShoulder  -0.646482 -5.43175 26.8148
RightArm  -8.06488 -19.7124 34.7223
RightForeArm  9.54086 54.7424 15.2238
RightHand  -0.170321 7.33566 -1.92537
LeftUpLeg  31.7807 -13.1139 158.526
LeftLeg  150.406 -33.3954 -157.336
LeftFoot  -2.57091 -1.50838 20.0747
LeftToes  -5.36635e-011 -6.70219e-011 5.24975e-011
1117
root  25.6138 32.9731 -8.13646 94.6854 76.8975 -122.18
RightUpLeg  104.044 -19.496 49.7356
RightLeg  20.5395 -57.5391 -21.1581
RightFoot  12.2788 0.0479717 -0.12827
RightToes  3.49245e-010 0 -3.6325e-017
Spine  124.284 -18.4278 3.96787
Spine1  22.3826 -8.09011 4.49454
HEad  -24.9231 0.426125 0.373627
LeftShoulder1  -0.416244 4.58446 -32.3547
LeftArm  2.23982 -1.02408 -39.2622
LeftForeArm  9.17973 -47.124 -11.4235
LeftHand  -0.0358282 4.48357 2.04146
RightShoulder  -0.754544 -5.72573 27.3314
RightArm  -17.5761 -19.1649 33.6087
RightForeArm  3.69941 55.7362 16.3943
RightHand  -0.442128 7.71351 -4.2497
LeftUpLeg  43.4818 -41.9376 163.133
LeftLeg  173.926 -64.774 -174.019
LeftFoot  -5.61482 -0.948252 15.6503
LeftToes  -5.36635e-011 -6.70219e-011 5.24975e-011
1118
root  27.3383 34.0076 -8.90056 -137.191 63.7125 134.523
RightUpLeg  -112.696 -10.8398 -8.61608
RightLeg  15.0796 -1.45859 1.39108
RightFoot  9.94074 1.54832 -7.79156
RightToes  3.49245e-010 0 -3.6325e-017
Spine  -123.474 -28.1172 -10.5976
Spine1  49.3403 -11.8913 7.90322
HEad  -24.8301 0.0786166 0.149183
LeftShoulder1  -0.46191 4.68399 -32.9919
LeftArm  -9.62393 1.22202 -41.1835
LeftForeArm  -2.63678 -46.6444 -12.0535
LeftHand  -0.0328753 5.13149 2.95803
RightShoulder  -0.711176 -5.61859 26.9513
RightArm  -25.5654 -16.9941 31.8155
RightForeArm  -4.76456 53.6991 15.8119
RightHand  -0.881091 9.25813 -7.33324
LeftUpLeg  -78.0856 -14.2484 -14.2327
LeftLeg  19.1707 11.8765 -2.50626
LeftFoot  -14.771 0.305046 4.00086
LeftToes  -5.36635e-011 -6.70219e-011 5.24975e-011
1119
root  28.1745 34.0122 -9.37863 -133.038 68.4892 128.421
RightUpLeg  -124.066 -9.86988 -2.98468
RightLeg  18.4691 -3.77273 -0.485894
RightFoot  8.05229 1.28822 -7.2059
RightToes  3.49245e-010 0 -3.6325e-017
Spine  -132.713 -25.2471 -8.70029
Spine1  46.9681 -11.1247 8.68232
HEad  -24.1618 -1.93997 0.442317
LeftShoulder1  -0.327059 4.3591 -32.0572
LeftArm  -20.4114 2.70879 -43.9676
LeftForeArm  -13.848 -46.0183 -12.5095
LeftHand  -0.0233783 5.62089 1.92187
RightShoulder  -0.595527 -5.30934 26.256
RightArm  -31.1643 -14.8536 29.6288
RightForeArm  -15.7911 50.5589 14.8169
RightHand  -1.38078 10.338 -10.5546
LeftUpLeg  -81.6491 -22.7681 -17.1996
LeftLeg  18.3674 0.0867088 0.371864
LeftFoot  -12.6334 0.0898262 1.07089
LeftToes  -5.36635e-011 -6.70219e-011 5.24975e-011
1120
root  29.0812 34.0732 -9.87439 -130.547 69.4163 129.544
RightUpLeg  -124.642 -9.71767 -3.93815
RightLeg  20.2503 -4.6013 -0.762053
RightFoot  6.64414 1.32749 -8.08475
RightToes  3.49245e-010 0 -3.6325e-017
Spine  -134.36 -24.6302 -7.7883
Spine1  46.7412 -11.7324 9.32481
HEad  -23.7992 -4.33347 0.910482
LeftShoulder1  -0.198244 4.03591 -31.1911
LeftArm  -28.5044 2.42105 -45.1418
LeftForeArm  -17.5545 -45.1091 -12.3348
LeftHand  -0.0142625 6.14498 2.65758
RightShoulder  -0.574018 -5.24898 26.141
RightArm  -34.8446 -12.5802 26.4668
RightForeArm  -25.1644 47.1378 13.6378
RightHand  -1.57933 10.5927 -11.8082
LeftUpLeg  -83.649 -21.0701 -18.852
LeftLeg  22.6882 -3.13406 -1.13678
LeftFoot  -9.84588 0.109335 -3.51722
LeftToes  -5.36635e-011 -6.70219e-011 5.24975e-011
1121
root  29.9781 34.0665 -10.4066 -126.309 70.4709 131.788
RightUpLeg  -125.808 -9.351 -4.33411
RightLeg  21.8047 -5.11008 -0.705333
RightFoot  4.96436 1.28497 -8.69844
RightToes  3.49245e-010 0 -3.6325e-017
Spine  -136.709 -22.4919 -6.86524
Spine1  46.7917 -10.8967 8.98292
HEad  -23.901 -6.83763 1.79909
LeftShoulder1  -0.217138 4.08412 -31.2793
LeftArm  -33.2959 0.510978 -44.1632
LeftForeArm  -16.5028 -45.1381 -12.2906
LeftHand  -0.0290454 5.24294 3.66347
RightShoulder  -0.626601 -5.42395 25.9153
RightArm  -37.7507 -11.8192 24.1276
RightForeArm  -31.9542 46.0418 13.4626
RightHand  -1.4887 10.2748 -11.3634
LeftUpLeg  -87.7782 -19.2203 -20.212
LeftLeg  28.9349 -6.07138 -3.29498
LeftFoot  -5.31667 0.48786 -8.57086
LeftToes  -5.36635e-011 -6.70219e-011 5.24975e-011
1122
root  30.9285 33.8149 -10.9361 -121.962 72.4471 130.383
RightUpLeg  -130.465 -9.42146 -4.67981
RightLeg  23.0334 -5.0088 -0.380177
RightFoot  2.665 1.05233 -8.39243
RightToes  3.49245e-010 0 -3.6325e-017
Spine  -143.006 -21.5526 -5.66642
Spine1  47.4283 -10.1009 8.5528
HEad  -24.94 -8.33298 2.59899
LeftShoulder1  -0.296058 4.29054 -31.5085
LeftArm  -35.3812 -0.647874 -42.3282
LeftForeArm  -15.0135 -47.8178 -13.3849
LeftHand  -0.0411893 4.89138 3.67482
RightShoulder  -0.60432 -5.37915 25.4948
RightArm  -38.6073 -12.2891 22.5529
RightForeArm  -37.7981 47.5391 14.394
RightHand  -1.59165 10.7794 -11.695
LeftUpLeg  -95.7102 -19.0079 -21.8065
LeftLeg  35.5868 -7.57496 -5.44914
LeftFoot  0.692924 1.51756 -14.1412
LeftToes  -5.36635e-011 -6.70219e-011 5.24975e-011
1123
root  31.9418 33.1716 -11.3388 -121.756 75.4089 117.415
RightUpLeg  -142.042 -12.2523 -6.90212
RightLeg  24.6273 -5.25361 -0.576466
RightFoot  0.252214 0.832818 -8.172
RightToes  3.49245e-010 0 -3.6325e-017
Spine  -155.65 -26.8421 -4.15919
Spine1  48.1761 -12.2472 8.49978
HEad  -26.5608 -10.3041 3.12914
LeftShoulder1  -0.347144 4.43242 -31.2087
LeftArm  -36.18 -1.02447 -40.6202
LeftForeArm  -12.5593 -51.5059 -15.1055
LeftHand  -0.0218915 5.70664 2.05531
RightShoulder  -0.62318 -5.42497 25.7131
RightArm  -39.0774 -12.0293 21.5358
RightForeArm  -35.6113 49.5405 15.3081
RightHand  -1.12595 9.00932 -9.45871
LeftUpLeg  -108.917 -23.3097 -23.5883
LeftLeg  40.5607 -8.30031 -7.1809
LeftFoot  7.23213 2.98018 -18.5411
LeftToes  -5.36635e-011 -6.70219e-011 5.24975e-011
1124
root  32.7932 33.0577 -11.7775 -123.143 77.0806 111.936
RightUpLeg  -144.774 -12.7533 -7.42177
RightLeg  25.2259 -4.67589 -0.40903
RightFoot  -1.47664 0.688226 -8.06361
RightToes  3.49245e-010 0 -3.6325e-017
Spine  -159.587 -27.0505 -3.69815
Spine1  48.1359 -11.8421 7.90253
HEad  -27.1308 -10.7612 3.55122
LeftShoulder1  -0.278287 4.26613 -30.3883
LeftArm  -36.8255 -0.113273 -39.3331
LeftForeArm  -7.46223 -55.8406 -17.3965
LeftHand  -0.0230425 5.66496 2.22559
RightShoulder  -0.667748 -5.53995 26.1085
RightArm  -37.906 -11.2629 21.3519
RightForeArm  -32.8168 52.14 16.6297
RightHand  -1.35712 11.1416 -9.89576
LeftUpLeg  -115.497 -24.0977 -24.781
LeftLeg  45.5253 -6.7943 -6.93441
LeftFoot  9.86242 3.21637 -17.356
LeftToes  -5.36635e-011 -6.70219e-011 5.24975e-011
1125
root  33.6635 33.2349 -12.2642 -128.016 77.1337 105.777
RightUpLeg  -144.079 -13.7879 -7.38147
RightLeg  24.8282 -4.09724 -0.250753
RightFoot  -2.81441 0.5498 -7.6174
RightToes  3.49245e-010 0 -3.6325e-017
Spine  -161.362 -27.6249 -3.61254
Spine1  48.1663 -11.8519 7.5726
HEad  -27.138 -10.8932 3.45755
LeftShoulder1  -0.277814 4.26349 -30.393
LeftArm  -37.0133 0.855275 -37.7261
LeftForeArm  1.15153 -59.8545 -19.7634
LeftHand  -0.050881 4.19281 2.81661
RightShoulder  -0.640477 -5.46226 25.9987
RightArm  -35.2764 -9.86334 22.5558
RightForeArm  -28.2901 54.7532 18.0586
RightHand  -1.26506 10.1532 -9.80737
LeftUpLeg  -119.417 -24.4194 -25.0013
LeftLeg  48.4498 -4.02053 -4.48636
LeftFoot  8.57096 2.44901 -14.2244
LeftToes  -5.36635e-011 -6.70219e-011 5.24975e-011
1126
root  34.5704 33.2456 -12.6803 -140.058 76.9182 87.3914
RightUpLeg  -147.633 -17.3168 -7.96728
RightLeg  23.7924 -3.31702 -0.219091
RightFoot  -3.85065 0.445774 -7.18159
RightToes  3.49245e-010 0 -3.6325e-017
Spine  -167.437 -33.4872 -2.99957
Spine1  47.4959 -14.3148 7.05592
HEad  -26.2121 -11.2756 3.04152
LeftShoulder1  -0.223165 4.13406 -29.2932
LeftArm  -36.3287 2.59614 -37.0749
LeftForeArm  12.5937 -63.3875 -21.9901
LeftHand  -0.0888963 2.71235 3.4232
RightShoulder  -0.661367 -5.50647 26.3343
RightArm  -29.2372 -8.07899 23.7468
RightForeArm  -25.9823 56.6325 19.2676
RightHand  -1.21998 10.4127 -9.33399
LeftUpLeg  -125.794 -28.0098 -24.991
LeftLeg  47.6037 -1.61526 -1.46542
LeftFoot  8.60298 1.88826 -10.9832
LeftToes  -5.36635e-011 -6.70219e-011 5.24975e-011
